# xmcd CD database file
#
# Track frame offsets:
#	150
#	21937
#	45442
#	70230
#	89009
#	109506
#	131451
#	147392
#	166758
#	190691
#	227977
#
# Disc length: 3392 seconds
#
# Revision: 0
# Processed by: cddbd v1.5.2PL0 Copyright (c) Steve Scherf et al.
# Submitted via: CDex 1.81
#
DISCID=900d3e0b
DTITLE=Hank Jones - Classic Albums Vol.1 [Disc 2]
DYEAR=1955
DGENRE=Jazz
TTITLE0=Hank's Pranks
TTITLE1=Alpha
TTITLE2=Wine And Brandy
TTITLE3=We're All Together
TTITLE4=Odd Number
TTITLE5=We Could Make Such Beautiful Music Together
TTITLE6=Now's The Time
TTITLE7=When The Hearts Are Young
TTITLE8=Cyrano
TTITLE9=There's a Small Hotel
TTITLE10=My Funny Valentine
EXTD=YEAR: 1955
EXTT0=
EXTT1=
EXTT2=
EXTT3=
EXTT4=
EXTT5=
EXTT6=
EXTT7=
EXTT8=
EXTT9=
EXTT10=
PLAYORDER=
